<svg xmlns="http://www.w3.org/2000/svg" width="73.966" height="78.583" viewBox="0 0 73.966 78.583">
  <path id="Path_2437" data-name="Path 2437" d="M253.194,1085.244l22.012,12.708-22.012,12.709v-25.417m-2.717-7.986a3.271,3.271,0,0,0-3.272,3.272v34.844a3.261,3.261,0,0,0,4.9,2.83l30.176-17.422a3.267,3.267,0,0,0,0-5.659L252.106,1077.7a3.24,3.24,0,0,0-1.629-.443Zm47.04,42.037-.014-29.071-11.841-6.837-.007-13.639-25.123-14.512-25.17,14.547v13.676l-11.806,6.824-.006,29.013,25.183,14.524,11.841-6.836,11.813,6.812Zm-11.86-13.629-36.922,21.326-19.27-11.11,0-22.183,5.894-3.41v22.142l5.922,3.407-.008-42.639,19.256-11.133,19.209,11.1,0,6.812L260.57,1068.9l-5.911,3.425,36.93,21.313.014,22.243L272.39,1126.97l-5.9-3.4,19.177-11.072Z" transform="translate(-223.551 -1055.237)" fill="#333"/>
</svg>
